<svg xmlns="http://www.w3.org/2000/svg" viewBox="0 0 100 100">
  <defs>
    <linearGradient id="icon_bg" x1="0%" y1="0%" x2="100%" y2="100%">
      <stop offset="0%" stop-color="#B4C5E7"/>
      <stop offset="50%" stop-color="#CBD3E6"/>
      <stop offset="100%" stop-color="#DFCBCA"/>
    </linearGradient>
  </defs>

  <rect width="100" height="100" rx="22" fill="url(#icon_bg)"/>

  <path
    d="M 24 74 V 26 c 0 -1.5 1-2.5 2.5 -2.5 h 11 c 1.2 0 2.2.7 2.7 1.8 L 60 58.5 V 26 c 0 -1.5 1-2.5 2.5 -2.5 h 11 c 1.5 0 2.5 1 2.5 2.5 v 48 c 0 1.5 -1 2.5 -2.5 2.5 h -11 c -1.2 0 -2.2 -.7 -2.7 -1.8 L 40 41.5 V 74 c 0 1.5 -1 2.5 -2.5 2.5 h -11 c -1.5 0 -2.5 -1 -2.5 -2.5 Z"
    stroke="#2A2A35"
    stroke-width="1.2"
    stroke-linejoin="round"
    fill="none"
    opacity="0.85"
  />

  <g stroke="#2A2A35" stroke-width="0.6" opacity="0.6" stroke-linecap="round">
    <line x1="44" y1="42" x2="57" y2="58"/>
    <line x1="48" y1="42" x2="59" y2="55"/>
  </g>
</svg>
